<?xml version="1.0" encoding="UTF-8"?>
<!DOCTYPE svg PUBLIC "-//W3C//DTD SVG 1.1//EN" "http://www.w3.org/Graphics/SVG/1.1/DTD/svg11.dtd">
<!-- Creator: CorelDRAW 2020 (64-Bit) -->
<svg xmlns="http://www.w3.org/2000/svg" xml:space="preserve" width="52.8409mm" height="46.0176mm" version="1.1" style="shape-rendering:geometricPrecision; text-rendering:geometricPrecision; image-rendering:optimizeQuality; fill-rule:evenodd; clip-rule:evenodd"
viewBox="0 0 836.54 728.52"
 xmlns:xlink="http://www.w3.org/1999/xlink"
 xmlns:xodm="http://www.corel.com/coreldraw/odm/2003">
 <defs>
  <style type="text/css">
   <![CDATA[
    .fil1 {fill:#FEFEFE}
    .fil0 {fill:black}
   ]]>
  </style>
 </defs>
 <g id="Слой_x0020_1">
  <metadata id="CorelCorpID_0Corel-Layer"/>
  <g id="_1832699173184">
   <g>
    <path class="fil0" d="M39.62 395.15l0.84 3.88c1.5,3.89 3.82,7.17 4.87,11.66l10.36 0.12 3.89 -0.08 16.84 -0.04c2.1,-9 25.26,-53.13 25.9,-60.86 4.75,3.48 1.4,-0.52 3.5,15.92 4.69,36.75 7.91,42.35 -9.98,42.35l71.22 1.3c-8.97,-6.23 -9.23,5.23 -12.83,-32.49 -1.17,-12.28 -5.11,-31.03 -2.71,-41.32 3.33,-1.6 7.89,-2.59 12.95,-2.59l-56.98 -1.3c-1.83,3.81 -3.76,8.42 -5.55,12.58 -2.98,6.92 -14.96,36.22 -19.05,39.22 -0.51,-6.07 -18.22,-44.63 -22.01,-51.8 -4.33,0 -8.65,-0.02 -12.98,0.03 -4.19,0.04 -8.64,0.57 -11.63,-1.32 -7.13,3.42 -22.82,1.3 -32.37,1.3l0 1.3c12,0 12.77,1.91 11.84,12.99l-5.4 50.43c-2.44,10.35 -6.27,9.47 -10.32,12.99l27.19 0c-0.26,-0.18 -0.7,-0.72 -0.83,-0.46 -0,0.01 -7.77,-2.93 -9.82,-7.05 -4.01,-8.07 1.59,-35.06 1.59,-50.77l15.36 32.56c1.83,4.56 2.84,7.74 6.13,11.47z"/>
    <path class="fil0" d="M449.38 382.2c-0.56,8.08 0.78,17.01 -1.51,24.45 -3.58,1.24 -1.62,0.47 -5.18,1.05l-5.61 1.28c-0.26,0.09 -0.71,0.23 -1.03,0.43l40.48 -0.29 29.78 0.31 0 -1.32c-16.1,0 -8.3,-7.1 -11.03,-20.72 1.05,-14.39 2.39,-41.51 -2.59,-53.18 15.09,1.32 23.92,-2.05 25.78,15.55 1.83,17.25 -2.65,23.36 -18.92,23.38 2.27,5.71 5.21,0.64 11.02,11.29 9.52,17.45 11.98,29.25 41.06,25.82 10.33,1.36 19.53,-1.41 28.49,-2.15l-2.93 -0.95c-21.89,-5.9 -7.13,-33.69 -47.57,-29.81l-4.09 -2.12 4.09 -1.12c29.84,2.95 57.88,-28.16 10.36,-39.26 -14.59,-2.8 -26.15,-3.34 -41.44,-3.08l-14.24 -0.06 -40.15 -0.01 -7.77 0 0 1.3c6.1,0 5.79,0.23 10.36,1.3 5.19,10.82 2.48,32.82 2.62,47.91z"/>
    <path class="fil0" d="M350.93 334.28c30.32,0 29.79,15.79 29.79,44.03 0,20.93 -9.39,28.49 -29.79,28.49 1.05,-4.52 2.59,-4.36 2.59,-9.07 0,-13.91 2.29,-52.53 -2.59,-63.45zm-6.48 74.81c28.59,2.55 64.05,0.38 79.22,-21.49 14.65,-21.12 -0.32,-48.08 -36.63,-54.47 -19.31,-3.4 -44.41,-1.44 -65.89,-1.44l-22.07 1.58c3.48,0.62 2.69,-0.06 6.35,1.18 2.37,7.63 2.35,64.48 0.03,72.2 -3.55,1.2 -1.68,0.46 -5.2,1.03l-5.61 1.27c-0.26,0.09 -0.71,0.23 -1.03,0.43l50.84 -0.3z"/>
    <path class="fil0" d="M264.17 331.69l-38.85 0.13 -50.51 1.16c6.55,0 6.66,0.88 11.66,1.3 2.63,11.29 2.63,61.22 0,72.52 -4.94,1.15 -5.15,1.3 -11.66,1.3l42.73 1.01 27.2 0.17c9.91,0.34 31.87,2.17 38.85,-1.18l0 7.77 1.3 0 0.05 -10.36 1.63 -24.45 -6.86 0.17c-1.94,4.92 -0.62,6.85 -3.88,10.95 -2.51,5.55 -5.19,8 -10.38,10.72 -3.6,1.88 -11.86,3.59 -16.82,3.74l-17.54 -0.25c3.73,-6.66 3.47,-9.87 3.04,-19.01l0.28 -16.83 12.92 0.22c11.89,3.57 3.11,12.9 9.07,16.27 4.42,-1.75 2.46,-5.36 2.45,-17.78 -0.01,-13.64 2.02,-16.11 -2.45,-18.13 -4.93,3.29 0.57,8.22 -5.18,14.31 -4.96,2.98 -11.26,2.52 -16.84,2.52l-0.29 -24.61 -2.77 -8.56c14.57,-1.23 32.76,0.14 38.27,14.81 3.76,10.04 -1.71,10.73 9.66,10.57l-1.51 -25.89c1.3,-6.3 1.8,-6.35 -1.9,-9.07l0 6.48 -11.65 0z"/>
    <path class="fil0" d="M740.25 335.58l-8.6 3.17c-27.26,10.95 -29.92,37.55 -17.08,52.77 2.98,3.54 4.09,2.96 6.72,5.83l7.44 4.28c10.52,4.4 41.13,11.54 56.26,6.72 3.19,-1.02 27.21,-15.74 36.41,-7.11 5.79,5.44 -1.65,7.32 4.79,12.05l0 -36.26 10.36 -3.89 -64.75 1.3c14.02,0 15.84,-1.73 15.57,12.91 -0.25,13.31 4.66,17.19 -7.31,18.54 -17.45,1.97 -23.96,-11.93 -25.18,-30.14 -0.52,-7.8 -1,-16.18 1.6,-24.4 6.05,-19.14 25.3,-19.19 36.48,-13.62 7.14,3.56 9.31,9.14 11.2,17.28l11.66 0c0,-6.57 -1.33,-7.07 -1.32,-14.22 0,-7.04 1.61,-9.92 -2.56,-12.98l0 11.65c-18.71,-12.53 -52.09,-7.78 -71.69,-3.89z"/>
    <path class="fil0" d="M581.44 332.99c16.25,0 11.66,6.68 11.65,23.31 0,10.18 -1.63,25.51 1.73,33.23 8.59,19.69 66.43,27.41 85.28,12.34 6.38,-5.1 8.95,-11.41 9.96,-21.12 0.86,-8.31 0.19,-20.94 0.12,-29.66 -0.15,-17.21 3.56,-15.62 9.11,-18.08 0.26,-0.12 0.65,-0.3 0.88,-0.41l-26.8 -0.9c12.73,8.08 12.95,-5.19 12.95,50.5 0,13.8 -11.54,21.49 -23.52,23.16 -28.8,4.01 -23.1,-14.51 -23.1,-56.83 0,-7.19 1.3,-7.68 1.3,-14.25 5.11,-0.42 6.07,-1.3 12.95,-1.3l-72.52 0z"/>
   </g>
   <g>
    <path class="fil1" d="M382.01 496.15c14.81,12.88 43.65,35.09 60.86,46.62 0,22.65 -10.19,83.59 -15.27,103.86 -3.48,13.9 -20.43,74.84 -44.29,74.84 -32.77,0 -49.7,-92.78 -53.82,-118.41l-5.76 -47.34c-0.88,-19.91 -7.78,-10.49 20.53,-31.29l37.75 -28.29zm88.06 -14.25c12.89,0 60.39,-7.36 74.15,-10.02 7.44,-1.44 16.76,-4.22 24.27,-4.22 3.27,4.88 7,8.84 10.73,13.87 1.99,2.69 3.04,4.03 5.12,6.54l15.49 22.07c13.28,20.01 54.19,84.42 35.73,104.88 -8.28,9.18 -34.38,1.67 -43.05,-1.74 -4.72,-1.85 -6.38,-2.88 -10.71,-4.83l-29.38 -15.94c-17.04,-11.24 -28.17,-18.65 -44.61,-31.8l-25.74 -20.87c-3.34,-2.98 -5.33,-4.05 -8.44,-7.1 -4.22,-4.14 -3.38,-3.98 -8.73,-6.81 0,-9.48 5.18,-30.44 5.18,-44.03zm-47.91 3.89l24.6 -1.3c0,9.38 -1.29,12.97 -1.29,22.02 -4.44,-2.97 -8.09,-6.06 -11.98,-10.03 -1.91,-1.95 -3.14,-3.37 -5.25,-5.12 -2.85,-2.36 -4.13,-2.65 -6.08,-5.57zm-102.3 24.6l-1.3 -27.19c8.41,0.7 15.56,1.29 25.9,1.29 -1.55,5.8 -7.31,9.26 -11.33,13.27 -4.51,4.5 -8.18,9.22 -13.27,12.63zm104.89 -50.5c0.88,-1.2 21.8,-21 23.31,-22.02 0,27.12 4.24,22.02 -23.31,22.02zm-107.48 -22.02l22.33 21.7 -21.04 0.31c-0.13,-5.63 -1,-4.57 -1.3,-10.35 -0.19,-3.65 0.01,-7.94 0.01,-11.66zm98.42 -176.11c12.1,0 19.69,1.3 32.38,1.3l1.3 31.08 -25.6 -23.6c-3.08,-3.03 -5.78,-5.36 -8.07,-8.77zm-98.42 31.08l0 -29.78c8.83,-2.06 21.49,-1.3 32.38,-1.3 -0.97,1.44 -30.49,29.82 -32.38,31.08zm129.5 -80.29c0,12.27 1.3,19.62 1.3,31.08 -7.56,0 -9.5,-0.98 -15.53,-1.3 -5.67,-0.31 -12.35,0.01 -18.14,0.01l32.37 -29.78zm-129.48 31.37c2.09,-9.34 1.28,-22.86 1.28,-33.96 3.41,1.8 31.51,27.22 34.97,32.37l-36.24 1.58zm247.32 15.25c-7.15,-0.6 -13.72,-2.97 -21.64,-4.26 -19.46,-3.17 -54.02,-8.69 -72.89,-8.69 -0.81,-9.7 -3.45,-23.65 -4.8,-32.75 -2.94,-19.84 -2.58,-14.86 9.02,-25.19 30.33,-27 106.5,-83.21 144.7,-83.21 49.21,0 -1.67,81.33 -9.82,93.77 -13.36,20.4 -23.99,33.76 -38.64,52.01 -3.07,3.82 -4.71,3.78 -5.93,8.32zm-427.33 -157.99c27.83,0 50.65,10.1 73.28,23.84 7.01,4.25 13.03,8.24 19.7,12.68 13.86,9.24 50.29,36.77 63.38,49.28 2.83,2.7 6.35,5.41 9.39,7.45 -0.16,7.32 -2.87,17.92 -3.96,25.82 -1.16,8.35 -1.97,18.07 -3.81,25.98 -12.51,0 -89.07,12.29 -95.83,15.54 -11.42,-17.05 -32.23,-37.35 -47.85,-63.52 -10.26,-17.18 -10.54,-16.24 -19.93,-35.75 -3.19,-6.62 -5.62,-13.26 -7.6,-20.88 -2.47,-9.5 -2.31,-13.7 -2.31,-26.18 -13.35,21.04 33.48,106.27 44.26,124.08l15.3 26.14c-23.47,5.47 -44.87,12.42 -66.87,19.9l-31.12 12.9c-6.17,2.86 -24.66,12.37 -27.62,16.41 5.85,-1.36 8.43,-4.19 13.79,-6.93 5.49,-2.8 9.41,-4.32 15.14,-6.88 21.41,-9.57 81.76,-26.34 103.16,-26.34 7.9,14.93 18.68,28.54 27.71,42.22 3.79,5.74 6.82,8.81 9.85,14.89l38.85 -0.13c-1.64,-6.12 -25.13,-25.66 -34.77,-37.75l-13.89 -14.6c-2.8,-3.6 -4.91,-5.37 -7.02,-8.52 7.11,0 14.77,-1.68 20.95,-2.36l64.52 -5.41c-0.99,11.92 -2.81,26.76 -3.82,38.92 -1.8,21.74 5.13,12.18 -5.95,26.4 -3.16,4.05 -1.82,3.6 -6.46,5.91l1.51 25.89c-11.36,0.16 -5.89,-0.53 -9.66,-10.57 -5.5,-14.67 -23.7,-16.05 -38.27,-14.81l2.77 8.56 8.99 10.73c3.13,4.2 5.43,7.17 8.14,11.36 5.75,-6.1 0.25,-11.02 5.18,-14.31 4.47,2.02 2.45,4.49 2.45,18.13 0,12.43 1.97,16.04 -2.45,17.78 -5.96,-3.37 2.82,-12.7 -9.07,-16.27 -2.47,4.21 -9.38,14.34 -13.2,16.61 0.44,9.14 0.69,12.35 -3.04,19.01l17.54 0.25c4.55,-6.24 13.15,-16.35 19.43,-20.56l7.77 6.1c3.26,-4.1 1.94,-6.03 3.88,-10.95l6.86 -0.17 -1.63 24.45c7.56,2.05 4.57,14.18 5.13,24.61 0.42,7.95 2.6,20.57 2.6,28.48 -25.91,0 -68.8,-6.48 -85.47,-6.48l37.56 -42.85 -27.2 -0.17c-1.21,5.03 -9.41,15.38 -12.75,19.91 -3.21,4.35 -11.86,15.7 -13.14,20.52l-36.81 -5.92c-24.93,-4.58 -79.68,-19.65 -95.27,-32.89l-3.89 0.08c6.58,8.44 46.99,24.88 58.46,29.48 8.85,3.55 58.05,20.04 68.45,20.9 -10.44,19.73 -22.59,36.1 -34.1,59.14 -7.96,15.92 -26.76,50.35 -26.76,67.77l0.82 -1.77c0.08,-0.2 0.28,-0.66 0.38,-0.92 5.4,-14.51 3.65,-14.72 12.61,-32.72l18.03 -31.18c6.8,-10.39 13,-19.13 20.33,-28.88l15.91 -20.35c2.35,-3 3.98,-4.58 5.74,-7.21 5.5,0.46 12.52,2.58 17.15,3.57 18.25,3.91 54.7,10.17 72.46,11.71 12.01,1.04 9.62,-1.19 11.04,10.97 0.95,8.19 3.27,32.48 5.53,37.2l-52.55 43.28c-27.38,21.37 -72.9,52.55 -108.03,52.55l0 1.3c37.96,0 93.77,-31.32 127.32,-51.39l37.14 -22.42c0.18,7.9 8.38,42.57 10.62,51.54 4.2,16.8 8.54,33.85 13.82,49.63 5.08,15.19 10.54,31.1 17.88,44.28 52.66,94.51 90.91,-51.96 100.65,-90.54l11.13 -52.32c25.69,17.2 129.73,85.52 171.02,73.89 38.53,-10.85 8.09,-74.8 -3.77,-97.4l-16.46 -30.16c-8.23,-13.59 -15.39,-25.62 -23.88,-38.28 6.73,-1.57 13.01,-3.38 19.42,-5.18 6.57,-1.84 13.42,-3.41 20.25,-5.65 25.15,-8.26 66.62,-24.01 87.44,-39.47 3.52,-2.62 11.39,-9.46 15,-10.57l-7.44 -4.28c-10.87,7.7 -17.74,11.84 -30.22,18.09 -21.63,10.83 -88.61,31.51 -114.82,31.51 -4.08,-6.1 -7.83,-11.32 -12.18,-17.61 -2.55,-3.7 -3.95,-5.45 -6.48,-9.06 -4.41,-6.31 -4.86,-5.26 -5.95,-10.03 -29.08,3.43 -31.54,-8.37 -41.06,-25.82 -5.81,-10.66 -8.75,-5.58 -11.02,-11.29 16.27,-0.02 20.75,-6.13 18.92,-23.38 -1.86,-17.6 -10.69,-14.23 -25.78,-15.55 4.98,11.67 3.63,38.79 2.59,53.18 6.85,1.46 6.59,5.41 15.89,14.57l43.05 48.89c-5.34,0 -15.2,1.65 -19.79,2.22l-61.79 4.25c1.23,-14.78 2.73,-33.02 3.89,-48.2l-40.48 0.29c0.32,-0.2 0.76,-0.34 1.03,-0.43l5.61 -1.28c3.56,-0.58 1.6,0.19 5.18,-1.05 2.29,-7.44 0.94,-16.37 1.51,-24.45l-66.08 66.04 -38.85 -39.15 -50.84 0.3c0.31,-0.2 0.76,-0.34 1.03,-0.43l5.61 -1.27c3.52,-0.57 1.65,0.17 5.2,-1.03 2.33,-7.72 2.35,-64.57 -0.03,-72.2 -3.66,-1.24 -2.87,-0.56 -6.35,-1.18l22.07 -1.58 62.16 -60.86 60.86 60.86 40.15 0.01 -8.22 -11.21c-1.4,-3.48 -1.33,-49.04 -4.73,-56.13l41.23 2.8c5.68,0.58 13.47,1.7 19.63,2.38 6.21,0.69 13.59,2.46 19.42,2.59 -3.94,7.44 -7.47,8.41 -12.4,14.79l-27.36 29.62c-2.84,3.39 -3.18,4.44 -6.52,7.73 -2.88,2.84 -4.73,4.29 -6.82,7.49 15.29,-0.26 26.85,0.29 41.44,3.08 4.87,-9.3 37.63,-49.41 40.14,-58.83 14.64,3.41 29.19,5.66 43.77,9.32l40.9 12.19c18.41,6.08 58.48,25.12 66.84,41.21l8.6 -3.17c-5.36,-1.74 -9.89,-8.74 -14.08,-12.64 -11.82,-10.99 -37.04,-24.32 -52.23,-30.65l-40.53 -15.16c-8.21,-2.75 -35.09,-11.28 -44.2,-11.48 0.41,-4.98 2.94,-6.88 5.12,-10.42l17.31 -29.31c13.86,-24.97 47.83,-85.77 35.87,-114.39 -3.5,-8.38 -7.67,-12.25 -17.62,-14.76 -33.87,-8.53 -101.46,33.7 -132.56,52.39 -3.22,1.93 -5.96,3.98 -9.37,6.17l-29.53 18.38c-0.45,-5.45 -2.64,-14.2 -3.89,-19.43 -1.62,-6.83 -2.81,-12.73 -4.43,-20.17 -2.9,-13.32 -6.36,-25.55 -9.97,-37.95l-11.66 -36.25c-2.18,-6.58 -10.66,-29.07 -15.38,-32.53 2.7,11.57 12.38,25.02 21.68,72.85 4.07,20.97 6.52,40.14 8.2,61.73 0.44,5.64 1.28,16.9 2.49,22.11l-63.46 49.21 -62.16 -46.62c1.21,-2.53 4.03,-40.1 4.78,-45.72 4.56,-34.09 10,-71.43 23.33,-102.29 2.54,-5.88 6.79,-11.92 8.15,-17.75 -13.6,9.97 -36.21,95.88 -40.66,113.44 -2.16,8.53 -8.55,35.69 -8.55,43.25 -6.57,-3.47 -12.42,-7.83 -18.9,-12.17 -6.75,-4.52 -12.41,-7.45 -19.17,-11.9 -6.72,-4.42 -12.39,-7.62 -19.31,-11.77 -18.03,-10.81 -94.13,-52.05 -112.25,-40.55z"/>
    <path class="fil1" d="M121.73 588.09c-1.07,1.69 -1.43,-2.62 -1.31,9.05 0.04,3.89 0.02,7.78 0.02,11.67l1.29 -20.72z"/>
    <path class="fil1" d="M388.49 1.48c-0.27,-0.17 -0.65,-0.77 -0.8,-0.5l-4.37 -0.98c-0.09,-0 -3.68,0.22 -3.79,0.25 -2.56,0.53 -1.37,0.38 -2.7,1.23l11.66 0z"/>
    <path class="fil1" d="M358.7 17.02c3.39,-2.27 2.68,-0.66 3.88,-5.18 -3.39,2.27 -2.68,0.65 -3.88,5.18z"/>
    <polygon class="fil1" points="20.72,370.54 22.02,370.54 22.02,365.36 20.72,365.36 "/>
    <polygon class="fil1" points="134.68,624.35 139.86,624.35 139.86,623.06 134.68,623.06 "/>
    <polygon class="fil1" points="529.64,377.34 529.64,374.1 525.54,375.21 "/>
    <polygon class="fil1" points="40.46,399.03 39.62,395.15 36.26,395.15 "/>
    <path class="fil1" d="M23.31 375.72l0 -3.89 -1.3 0c0,6.85 0.01,1.93 1.3,3.89z"/>
    <path class="fil1" d="M51.8 317.45c3.7,-0.88 1.95,0.19 3.89,-2.59 -3.7,0.88 -1.95,-0.2 -3.89,2.59z"/>
    <path class="fil1" d="M411.8 24.79c-0.88,-3.7 0.2,-1.95 -2.59,-3.89 0.88,3.7 -0.2,1.95 2.59,3.89z"/>
    <path class="fil1" d="M123.02 111.55c2.79,-1.94 1.71,-0.19 2.59,-3.88 -2.79,1.94 -1.71,0.19 -2.59,3.88z"/>
    <path class="fil1" d="M356.11 20.9c2.79,-1.94 1.71,-0.19 2.59,-3.88 -2.79,1.94 -1.71,0.19 -2.59,3.88z"/>
    <path class="fil1" d="M406.62 17.02c-0.89,-3.7 0.19,-1.95 -2.59,-3.89 0.88,3.7 -0.2,1.95 2.59,3.89z"/>
    <path class="fil1" d="M34.97 393.85c-0.89,-3.69 0.2,-1.95 -2.59,-3.88 0.88,3.7 -0.2,1.95 2.59,3.88z"/>
    <path class="fil1" d="M47.92 320.04c3.69,-0.88 1.95,0.2 3.88,-2.59 -3.69,0.88 -1.95,-0.2 -3.88,2.59z"/>
    <path class="fil1" d="M129.5 620.47l-3.88 -3.88c1.04,3.9 -0.02,2.84 3.88,3.88z"/>
    <path class="fil1" d="M137.27 101.19c-6.15,0 -2.46,-0.03 -3.89,1.3 6.15,0 2.46,0.03 3.89,-1.3z"/>
    <path class="fil1" d="M121.73 115.43c1.33,-1.43 1.3,2.27 1.3,-3.89 -1.32,1.43 -1.3,-2.26 -1.3,3.89z"/>
    <polygon class="fil1" points="396.26,5.36 396.26,4.07 394.75,5.15 "/>
    <path class="fil1" d="M392.37 4.07l0.39 -0.39c-0.03,0.02 -0.51,0.26 -0.39,0.39z"/>
    <polygon class="fil1" points="404.03,13.13 402.73,11.84 "/>
    <polygon class="fil1" points="407.91,18.31 406.62,17.02 "/>
    <polygon class="fil1" points="409.21,20.9 407.91,18.31 "/>
    <polygon class="fil1" points="413.09,27.38 411.8,24.79 "/>
    <polygon class="fil1" points="133.38,102.49 130.79,103.78 "/>
    <polygon class="fil1" points="128.2,105.07 126.91,106.37 "/>
    <polygon class="fil1" points="126.91,106.37 125.61,107.67 "/>
    <polygon class="fil1" points="47.92,320.04 46.62,321.33 "/>
    <polygon class="fil1" points="397.55,6.66 396.26,5.36 "/>
    <polygon class="fil1" points="45.32,322.63 42.74,323.92 "/>
    <polygon class="fil1" points="42.74,323.92 41.44,325.22 "/>
    <polygon class="fil1" points="41.44,325.22 40.14,326.51 "/>
    <polygon class="fil1" points="40.14,326.51 38.85,327.81 "/>
    <polygon class="fil1" points="38.85,327.81 37.55,329.1 "/>
    <polygon class="fil1" points="37.55,329.1 36.26,330.4 "/>
    <polygon class="fil1" points="376.83,1.48 374.24,2.77 "/>
    <polygon class="fil1" points="46.62,321.33 45.32,322.63 "/>
    <polygon class="fil1" points="388.49,1.48 391.01,2.97 "/>
    <polygon class="fil1" points="374.24,2.77 371.65,4.07 "/>
    <polygon class="fil1" points="371.65,4.07 369.06,5.36 "/>
    <polygon class="fil1" points="24.61,378.31 23.31,375.72 "/>
    <polygon class="fil1" points="25.9,380.9 24.61,378.31 "/>
    <polygon class="fil1" points="27.19,383.49 25.9,380.9 "/>
    <polygon class="fil1" points="28.49,384.78 27.19,383.49 "/>
    <polygon class="fil1" points="369.06,5.36 367.77,6.66 "/>
    <polygon class="fil1" points="29.79,387.38 28.49,384.78 "/>
    <polygon class="fil1" points="367.77,6.66 366.47,7.95 "/>
    <polygon class="fil1" points="32.37,389.97 31.08,388.67 "/>
    <polygon class="fil1" points="398.85,7.95 397.55,6.66 "/>
    <polygon class="fil1" points="36.26,395.15 34.97,393.85 "/>
    <polygon class="fil1" points="366.47,7.95 365.18,9.25 "/>
    <polygon class="fil1" points="400.14,9.25 398.85,7.95 "/>
    <polygon class="fil1" points="365.18,9.25 363.88,10.54 "/>
    <polygon class="fil1" points="401.44,10.54 400.14,9.25 "/>
    <polygon class="fil1" points="130.79,103.78 128.2,105.07 "/>
    <polygon class="fil1" points="363.88,10.54 362.59,11.84 "/>
    <polygon class="fil1" points="123.02,612.7 122.31,609.91 "/>
    <polygon class="fil1" points="124.32,615.29 123.02,612.7 "/>
    <polygon class="fil1" points="125.61,616.58 124.32,615.29 "/>
    <polygon class="fil1" points="402.73,11.84 401.44,10.54 "/>
    <polygon class="fil1" points="130.79,621.76 129.5,620.47 "/>
    <polygon class="fil1" points="130.79,621.76 133.32,623.25 "/>
    <polygon class="fil1" points="31.08,388.67 29.79,387.38 "/>
   </g>
  </g>
 </g>
</svg>
