<?xml version="1.0" encoding="UTF-8"?>
<!DOCTYPE svg PUBLIC "-//W3C//DTD SVG 1.1//EN" "http://www.w3.org/Graphics/SVG/1.1/DTD/svg11.dtd">
<!-- Creator: CorelDRAW 2020 (64-Bit) -->
<svg xmlns="http://www.w3.org/2000/svg" xml:space="preserve" width="58.454mm" height="16.0514mm" version="1.1" style="shape-rendering:geometricPrecision; text-rendering:geometricPrecision; image-rendering:optimizeQuality; fill-rule:evenodd; clip-rule:evenodd"
viewBox="0 0 3615.8 992.89"
 xmlns:xlink="http://www.w3.org/1999/xlink"
 xmlns:xodm="http://www.corel.com/coreldraw/odm/2003">
 <defs>
  <style type="text/css">
   <![CDATA[
    .fil0 {fill:#009FA8;fill-rule:nonzero}
   ]]>
  </style>
 </defs>
 <g id="Слой_x0020_1">
  <metadata id="CorelCorpID_0Corel-Layer"/>
  <path class="fil0" d="M614.98 206.15c60.1,0 107.85,20.86 143.26,62.58 35.4,41.72 53.1,104.3 53.1,187.75l0 323.95 -139.23 0 0 -298.71c0,-44.87 -7.89,-78.35 -23.65,-100.44 -15.77,-22.09 -38.24,-33.13 -67.39,-33.13 -32.73,0 -58.61,12.45 -77.65,37.34 -19.05,24.89 -28.57,61.88 -28.57,110.97l0 283.99 -139.24 0 0 -298.71c0,-89.05 -30.35,-133.57 -91.04,-133.57 -32.13,0 -57.73,12.45 -76.76,37.34 -19.05,24.89 -28.57,61.88 -28.57,110.97l0 283.99 -139.23 0 0 -565.87 132.99 0 0 65.21c17.85,-23.84 39.72,-42.07 65.61,-54.69 25.88,-12.62 54.3,-18.93 85.23,-18.93 33.92,0 64.57,7.89 91.94,23.67 27.37,15.77 49.39,38.74 66.05,68.89 19.64,-29.45 44.48,-52.24 74.53,-68.36 30.05,-16.13 62.93,-24.19 98.63,-24.19zm797.07 293.45c0,2.1 -0.89,16.83 -2.68,44.18l-363.27 0c6.54,35.06 22.01,62.75 46.41,83.09 24.4,20.33 54.74,30.5 91.05,30.5 24.99,0 47.15,-4.39 66.49,-13.15 19.34,-8.77 37.34,-22.61 54,-41.54l74.09 94.66c-45.22,61 -111.27,91.51 -198.15,91.51 -54.16,0 -102.05,-12.45 -143.71,-37.34 -41.65,-24.89 -73.79,-59.43 -96.4,-103.6 -22.61,-44.17 -33.92,-94.31 -33.92,-150.41 0,-55.39 11.16,-105.36 33.48,-149.88 22.31,-44.52 52.96,-79.24 91.93,-104.13 38.98,-24.89 82.56,-37.34 130.76,-37.34 47.01,0 89.56,11.92 127.64,35.76 38.09,23.84 67.99,58.02 89.71,102.55 21.72,44.52 32.58,96.24 32.58,155.14zm-249.02 -169.34c-31.54,0 -58.02,10.52 -79.44,31.55 -21.43,21.04 -34.52,49.79 -39.28,86.25l236.54 0c-4.76,-35.76 -17.85,-64.33 -39.28,-85.72 -21.42,-21.38 -47.61,-32.08 -78.54,-32.08zm830.98 -330.26l0 780.43 -132.99 0 0 -65.21c-34.51,49.08 -84.49,73.62 -149.95,73.62 -45.22,0 -86.13,-11.92 -122.72,-35.76 -36.59,-23.84 -65.31,-57.85 -86.13,-102.03 -20.83,-44.17 -31.24,-95.36 -31.24,-153.56 0,-58.2 10.42,-109.39 31.24,-153.56 20.82,-44.18 49.54,-78.19 86.13,-102.03 36.59,-23.84 77.51,-35.76 122.72,-35.76 61.29,0 109.19,22.79 143.71,68.36l0 -274.52 139.24 0zm-258.85 654.22c35.11,0 64.27,-14.2 87.48,-42.6 23.2,-28.4 34.81,-66.44 34.81,-114.12 0,-47.68 -11.6,-85.72 -34.81,-114.12 -23.21,-28.4 -52.37,-42.59 -87.48,-42.59 -35.7,0 -65.15,14.2 -88.36,42.59 -23.21,28.4 -34.81,66.44 -34.81,114.12 0,47.68 11.6,85.72 34.81,114.12 23.2,28.4 52.66,42.6 88.36,42.6zm520.37 -364.98c16.66,-27.35 39.12,-48.03 67.39,-62.06 28.26,-14.03 60.85,-21.04 97.74,-21.04l0 151.46c-15.47,-1.4 -25.89,-2.1 -31.24,-2.1 -39.87,0 -71.11,13.15 -93.72,39.44 -22.61,26.3 -33.92,65.74 -33.92,118.33l0 267.15 -139.24 0 0 -565.87 132.99 0 0 74.68zm735.48 -74.68l0 565.87 -132.1 0 0 -67.31c-18.45,24.54 -40.46,43.29 -66.05,56.27 -25.59,12.97 -53.26,19.45 -83.01,19.45 -63.07,0 -113.06,-21.38 -149.95,-64.16 -36.89,-42.77 -55.34,-106.23 -55.34,-190.38l0 -319.75 139.23 0 0 295.55c0,91.16 32.43,136.74 97.3,136.74 33.32,0 60.1,-12.79 80.33,-38.39 20.23,-25.6 30.34,-63.63 30.34,-114.12l0 -279.78 139.25 0zm624.79 0l0 471.21c0,103.78 -22.91,180.91 -68.73,231.4 -45.82,50.49 -112.76,75.73 -200.83,75.73 -46.42,0 -90.45,-6.66 -132.1,-19.98 -41.65,-13.32 -76.16,-32.6 -103.54,-57.85l55.34 -117.8c20.23,19.63 45.82,35.23 76.76,46.8 30.93,11.57 61.88,17.36 92.83,17.36 48.19,0 83.75,-12.8 106.65,-38.39 22.91,-25.59 34.36,-64.33 34.36,-116.22l0 -24.19c-36.29,46.98 -86.87,70.47 -151.73,70.47 -44.04,0 -84.35,-11.39 -120.94,-34.18 -36.59,-22.79 -65.61,-54.87 -87.03,-96.24 -21.42,-41.37 -32.13,-89.05 -32.13,-143.04 0,-53.99 10.71,-101.67 32.13,-143.04 21.42,-41.37 50.43,-73.45 87.03,-96.24 36.59,-22.79 76.91,-34.18 120.94,-34.18 69.62,0 122.58,26.99 158.87,80.99l0 -72.58 132.1 0zm-263.31 403.89c36.89,0 67.09,-12.79 90.6,-38.39 23.51,-25.6 35.26,-59.07 35.26,-100.45 0,-41.37 -11.75,-74.85 -35.26,-100.44 -23.51,-25.6 -53.7,-38.39 -90.6,-38.39 -36.89,0 -67.24,12.79 -91.04,38.39 -23.8,25.59 -35.7,59.07 -35.7,100.44 0,41.38 11.9,74.85 35.7,100.45 23.8,25.6 54.15,38.39 91.04,38.39z"/>
 </g>
</svg>
