<?xml version="1.0" encoding="UTF-8"?>
<!DOCTYPE svg PUBLIC "-//W3C//DTD SVG 1.1//EN" "http://www.w3.org/Graphics/SVG/1.1/DTD/svg11.dtd">
<!-- Creator: CorelDRAW 2020 (64-Bit) -->
<svg xmlns="http://www.w3.org/2000/svg" xml:space="preserve" width="66.5058mm" height="12.3106mm" version="1.1" style="shape-rendering:geometricPrecision; text-rendering:geometricPrecision; image-rendering:optimizeQuality; fill-rule:evenodd; clip-rule:evenodd"
viewBox="0 0 5116.48 947.09"
 xmlns:xlink="http://www.w3.org/1999/xlink"
 xmlns:xodm="http://www.corel.com/coreldraw/odm/2003">
 <defs>
  <style type="text/css">
   <![CDATA[
    .fil0 {fill:#009FA8;fill-rule:nonzero}
   ]]>
  </style>
 </defs>
 <g id="Слой_x0020_1">
  <metadata id="CorelCorpID_0Corel-Layer"/>
  <path class="fil0" d="M707.14 931.39l-1.11 -549.42 -228.68 452.62 -81.04 0 -227.57 -440.84 0 537.64 -168.74 0 0 -915.7 148.76 0 290.84 569.04 286.41 -569.04 147.64 0 2.22 915.7 -168.74 0zm954.69 -170.06l0 170.06 -601.68 0 0 -915.7 587.24 0 0 170.06 -408.52 0 0 198.84 360.78 0 0 164.82 -360.78 0 0 211.92 422.95 0zm143.2 -745.64l353.01 0c84.37,0 158.93,18.97 223.68,56.91 64.76,37.94 115.08,91.35 150.97,160.24 35.9,68.9 53.85,149.13 53.85,240.7 0,91.57 -17.95,171.81 -53.85,240.7 -35.89,68.89 -86.21,122.31 -150.97,160.24 -64.75,37.94 -139.31,56.91 -223.68,56.91l-353.01 0 0 -915.7zm344.14 741.72c77.7,0 139.69,-25.51 185.94,-76.53 46.26,-51.02 69.39,-120.13 69.39,-207.34 0,-87.21 -23.13,-156.32 -69.39,-207.34 -46.25,-51.01 -108.24,-76.53 -185.94,-76.53l-164.3 0 0 567.73 164.3 0zm1067.93 173.98l-149.87 -255.09 -8.89 0 -156.53 0 0 255.09 -179.84 0 0 -915.7 336.37 0c68.83,0 128.59,13.52 179.28,40.55 50.7,27.03 89.74,65.41 117.12,115.12 27.38,49.71 41.07,108.58 41.07,176.59 0,68.02 -13.88,126.68 -41.63,175.95 -27.76,49.28 -67.16,87 -118.23,113.16l174.29 294.33 -193.16 0zm-3.34 -583.44c0,-51.45 -14.06,-90.91 -42.18,-118.38 -28.13,-27.47 -69.19,-41.21 -123.22,-41.21l-146.53 0 0 319.19 146.53 0c54.03,0 95.1,-13.96 123.22,-41.86 28.13,-27.91 42.18,-67.15 42.18,-117.74zm669.4 599.13c-111.01,0 -197.42,-36.19 -259.22,-108.58 -61.79,-72.38 -92.69,-175.72 -92.69,-310.02l0 -512.8 179.84 0 0 504.94c0,163.96 57.72,245.93 173.18,245.93 56.25,0 99.17,-19.84 128.77,-59.52 29.6,-39.68 44.4,-101.82 44.4,-186.42l0 -504.94 177.62 0 0 512.8c0,134.3 -30.9,237.65 -92.7,310.02 -61.79,72.39 -148.2,108.58 -259.2,108.58zm1054.59 -487.93l164.29 0 0 371.51c-42.18,37.5 -91.03,66.28 -146.53,86.34 -55.51,20.06 -111.38,30.08 -167.62,30.08 -80.66,0 -153.2,-20.27 -217.58,-60.82 -64.39,-40.55 -114.9,-96.8 -151.53,-168.75 -36.63,-71.95 -54.95,-153.27 -54.95,-243.97 0,-90.7 18.32,-172.02 54.95,-243.97 36.64,-71.95 87.52,-128.19 152.64,-168.75 65.13,-40.55 138.39,-60.82 219.8,-60.82 68.09,0 129.88,13.52 185.38,40.55 55.51,27.03 102.13,66.28 139.88,117.73l-115.45 125.59c-55.51,-68.9 -122.48,-103.34 -200.93,-103.34 -49.58,0 -93.62,12.21 -132.1,36.63 -38.48,24.42 -68.45,58.86 -89.92,103.34 -21.46,44.47 -32.19,95.49 -32.19,153.05 0,56.68 10.72,107.27 32.19,151.74 21.46,44.48 51.25,79.15 89.37,104 38.1,24.86 81.59,37.28 130.44,37.28 51.8,0 98.43,-13.08 139.87,-39.24l0 -268.16z"/>
 </g>
</svg>
