<svg id="book" viewBox="0 0 512 512" xmlns="http://www.w3.org/2000/svg">
    <g>
        <g>
            <path d="M-0.6,61v333.7c0,33.1,26.9,60,60,60h65.5V513l55-24.8l55,24.8v-58.2h275.6V1H59.4C26.3,1-0.6,27.9-0.6,61z M205,466.6
                    l-25-11.3l-25,11.3v-41.9H205V466.6z M480.6,424.8H235v-30H124.9v30H59.4c-16.6,0-30-13.5-30-30s13.5-30,30-30h421.2V424.8z
                    M480.6,334.7H59.4c-10.9,0-21.2,3-30,8.1V61c0-16.6,13.5-30,30-30h421.2L480.6,334.7L480.6,334.7z"/>
        </g>
    </g>
    <g>
        <g>
            <path d="M370,197.8v-30h-22.7c-2.1-10.6-6.2-20.4-12.1-29.1l16.1-16.1l-21.2-21.2l-16.1,16.1c-8.6-5.8-18.5-10-29.1-12.1V82.8h-30
                    v22.7c-10.6,2.1-20.4,6.2-29.1,12.1l-16.1-16.1l-21.2,21.2l16.1,16.1c-5.8,8.6-10,18.5-12.1,29.1H170v30h22.7
                    c2.1,10.6,6.2,20.4,12.1,29.1L188.7,243l21.2,21.2l16.1-16.1c8.6,5.8,18.5,10,29.1,12.1v22.7h30v-22.7
                    c10.6-2.1,20.4-6.2,29.1-12.1l16.1,16.1l21.2-21.2l-16.1-16.1c5.8-8.6,10-18.5,12.1-29.1H370z M270,231.6
                    c-26.9,0-48.8-21.9-48.8-48.8s21.9-48.8,48.8-48.8s48.8,21.9,48.8,48.8S296.9,231.6,270,231.6z"/>
        </g>
    </g>
</svg>