<?xml version="1.0" encoding="UTF-8"?>
<!DOCTYPE svg PUBLIC "-//W3C//DTD SVG 1.1//EN" "http://www.w3.org/Graphics/SVG/1.1/DTD/svg11.dtd">
<!-- Creator: CorelDRAW 2020 (64-Bit) -->
<svg xmlns="http://www.w3.org/2000/svg" xml:space="preserve" width="129.009mm" height="129.009mm" version="1.1" style="shape-rendering:geometricPrecision; text-rendering:geometricPrecision; image-rendering:optimizeQuality; fill-rule:evenodd; clip-rule:evenodd"
viewBox="0 0 24402.34 24402.34"
 xmlns:xlink="http://www.w3.org/1999/xlink"
 xmlns:xodm="http://www.corel.com/coreldraw/odm/2003">
 <defs>
  <style type="text/css">
   <![CDATA[
    .fil0 {fill:#009FA8;fill-rule:nonzero}
   ]]>
  </style>
 </defs>
 <g id="Слой_x0020_1">
  <metadata id="CorelCorpID_0Corel-Layer"/>
  <path class="fil0" d="M16227.57 12201.93l7549.19 -7549.19c834.1,-834.1 834.1,-2186.41 0,-3019.21l-1006.4 -1006.4c-834.37,-834.37 -2186.67,-834.37 -3019.47,0l-7548.94 7548.94 -7549.19 -7550.49c-834.1,-834.1 -2186.41,-834.1 -3019.21,0l-1007.97 1006.4c-834.1,834.37 -834.1,2186.67 0,3019.47l7550.49 7550.49 -7548.94 7548.94c-834.37,834.37 -834.37,2186.67 0,3019.47l1006.4 1006.4c834.1,834.1 2186.41,834.1 3019.21,0l7549.19 -7549.19 7548.94 7549.19c834.37,834.1 2186.67,834.1 3019.47,0l1006.4 -1006.4c834.1,-834.37 834.1,-2186.67 0,-3019.47l-7549.17 -7548.96zm0 0z"/>
 </g>
</svg>
