<svg id="delivery"  xmlns="http://www.w3.org/2000/svg" viewBox="0 0 521.12 371.74"><path d="M490.34,132.4c-15.39-16.67-37.31-25.88-61.67-25.88H370V74.81a14,14,0,0,0-14-14H76.71a14,14,0,0,0-14,14v48.73H8.28a14,14,0,1,0,0,28H76.82a14,14,0,0,0,14-14V88.8H342.16V368.09H210.43a8.82,8.82,0,0,0-1.75.12,46.91,46.91,0,0,0-87.2.23,13.44,13.44,0,0,0-3-.35H90.81V289.24a14,14,0,0,0-14-14H8.28a14,14,0,1,0,0,28H62.72V382a14,14,0,0,0,14,14h42.55a47,47,0,0,0,91.63,0H378.54a47,47,0,0,0,91.63,0h31.24a14,14,0,0,0,14-14V205.73C515.4,175.54,506.66,150.12,490.34,132.4ZM165.08,404.7a19,19,0,1,1,19-19A19,19,0,0,1,165.08,404.7Zm259.28,0a19,19,0,1,1,19-19A19,19,0,0,1,424.35,404.7Zm63.07-36.61H467.84a46.87,46.87,0,0,0-87,0H370.14V134.5h58.64c36.72,0,58.64,26.7,58.64,71.35Z" transform="translate(5.71 -60.82)"/><path d="M236.83,242.62a14,14,0,0,0,9.91,23.9,14.24,14.24,0,0,0,9.91-4.08l36-36,.12-.12c.23-.35.58-.58.82-.93s.23-.35.35-.58a2,2,0,0,1,.47-.58l.35-.7c.12-.23.23-.35.35-.58l.35-.7c.12-.23.23-.35.23-.58s.12-.47.23-.7.12-.47.23-.58a1.48,1.48,0,0,0,.12-.7c0-.23.12-.47.12-.7s.12-.47.12-.82.12-.35.12-.58a11.23,11.23,0,0,0,0-2.8,1.05,1.05,0,0,0-.12-.58c0-.23-.12-.47-.12-.82s-.12-.47-.12-.7-.12-.47-.12-.7-.12-.47-.23-.58-.12-.47-.23-.7-.23-.35-.23-.58l-.35-.7c-.12-.23-.23-.35-.35-.58l-.35-.7a2,2,0,0,0-.47-.58c-.12-.23-.23-.35-.35-.58s-.58-.58-.82-.93l-.12-.12L258.4,171.62a14,14,0,0,0-19.82,19.82L249,201.82H10.54a14,14,0,1,0,0,28H248.84Z" transform="translate(5.71 -60.82)"/></svg>
