<svg id="guarantee" xmlns="http://www.w3.org/2000/svg"  viewBox="0 0 190.16 241.93"><defs><rect width="190.16" height="241.93" fill="none"/></defs><title>guarantee</title><g ><path d="M188.05,85.58l-18.4-19,3.71-26.19a7.5,7.5,0,0,0-6.13-8.44l-26.06-4.57L128.77,4A7.5,7.5,0,0,0,118.85.76L95.08,12.38,71.31.76A7.5,7.5,0,0,0,61.39,4L49,27.36,22.93,31.93a7.5,7.5,0,0,0-6.13,8.44l3.71,26.19-18.4,19A7.5,7.5,0,0,0,2.11,96l18.4,19L16.8,141.23a7.5,7.5,0,0,0,6.13,8.44l20.86,3.66v81.11a7.5,7.5,0,0,0,10.85,6.71l40.44-20.21,40.43,20.21a7.5,7.5,0,0,0,10.85-6.71V153.32l20.86-3.66a7.5,7.5,0,0,0,6.13-8.44L169.65,115l18.4-19a7.5,7.5,0,0,0,0-10.43M98.44,205.83a7.51,7.51,0,0,0-6.71,0L58.79,222.3v-49.6l2.6,4.91a7.5,7.5,0,0,0,9.92,3.22L95.08,169.2l23.76,11.62a7.5,7.5,0,0,0,9.92-3.22l2.6-4.9v49.6Zm57.89-98.61a7.5,7.5,0,0,0-2,6.27l3.2,22.65L135,140.09a7.5,7.5,0,0,0-5.33,3.87l-10.72,20.2-20.54-10a7.49,7.49,0,0,0-6.59,0l-20.54,10L60.53,144a7.5,7.5,0,0,0-5.33-3.87l-22.53-3.95,3.2-22.65a7.5,7.5,0,0,0-2-6.27L17.94,90.79l15.9-16.44a7.5,7.5,0,0,0,2-6.26l-3.2-22.64L55.2,41.5a7.5,7.5,0,0,0,5.33-3.87L71.24,17.43l20.55,10a7.5,7.5,0,0,0,6.59,0l20.54-10,10.72,20.21A7.5,7.5,0,0,0,135,41.5l22.52,3.95-3.2,22.64a7.5,7.5,0,0,0,2,6.27l15.9,16.44Z" transform="translate(0 0)"/><path d="M95.08,39.51a51.29,51.29,0,1,0,51.29,51.29A51.35,51.35,0,0,0,95.08,39.51m0,87.58a36.29,36.29,0,1,1,36.29-36.3,36.34,36.34,0,0,1-36.29,36.3" transform="translate(0 0)"/><path d="M110.37,71.76,88.22,93.91l-8.43-8.42a7.5,7.5,0,1,0-10.6,10.61l13.73,13.72a7.5,7.5,0,0,0,10.6,0L121,82.37a7.5,7.5,0,0,0-10.6-10.61"/></g></svg>
