<?xml version="1.0" encoding="UTF-8"?>
<!DOCTYPE svg PUBLIC "-//W3C//DTD SVG 1.1//EN" "http://www.w3.org/Graphics/SVG/1.1/DTD/svg11.dtd">
<!-- Creator: CorelDRAW 2020 (64-Bit) -->
<svg xmlns="http://www.w3.org/2000/svg" xml:space="preserve" width="109.594mm" height="210mm" version="1.1" style="shape-rendering:geometricPrecision; text-rendering:geometricPrecision; image-rendering:optimizeQuality; fill-rule:evenodd; clip-rule:evenodd"
viewBox="0 0 8174.51 15663.76"
 xmlns:xlink="http://www.w3.org/1999/xlink"
 xmlns:xodm="http://www.corel.com/coreldraw/odm/2003">
 <defs>
  <style type="text/css">
   <![CDATA[
    .fil0 {fill:#FEFEFE;fill-rule:nonzero}
   ]]>
  </style>
 </defs>
 <g id="Слой_x0020_1">
  <metadata id="CorelCorpID_0Corel-Layer"/>
  <g id="_2619770010272">
   <path class="fil0" d="M7830.23 15663.75c-90.34,0.16 -177.06,-35.59 -241.02,-99.42l-7489.54 -7489.5c-132.9,-132.93 -132.9,-348.41 0,-481.38l7489.54 -7489.54c130.63,-135.22 346.12,-138.96 481.38,-8.36 135.22,130.63 138.96,346.12 8.36,481.38 -2.74,2.84 -5.52,5.62 -8.36,8.36l-7248.5 7248.5 7249.17 7248.51c133.12,132.77 133.37,348.32 0.6,481.44 -64.02,64.15 -150.99,100.15 -241.63,99.99z"/>
   <path class="fil0" d="M7830.23 15663.75c-90.34,0.16 -177.06,-35.59 -241.02,-99.42l-7489.54 -7489.5c-132.9,-132.93 -132.9,-348.41 0,-481.38l7489.54 -7489.54c130.63,-135.22 346.12,-138.96 481.38,-8.36 135.22,130.63 138.96,346.12 8.36,481.38 -2.74,2.84 -5.52,5.62 -8.36,8.36l-7248.5 7248.5 7249.17 7248.51c133.12,132.77 133.37,348.32 0.6,481.44 -64.02,64.15 -150.99,100.15 -241.63,99.99z"/>
   <g>
   </g>
   <g>
   </g>
   <g>
   </g>
   <g>
   </g>
   <g>
   </g>
   <g>
   </g>
   <g>
   </g>
   <g>
   </g>
   <g>
   </g>
   <g>
   </g>
   <g>
   </g>
   <g>
   </g>
   <g>
   </g>
   <g>
   </g>
   <g>
   </g>
  </g>
 </g>
</svg>
