<?xml version="1.0" encoding="UTF-8"?>
<!DOCTYPE svg PUBLIC "-//W3C//DTD SVG 1.1//EN" "http://www.w3.org/Graphics/SVG/1.1/DTD/svg11.dtd">
<!-- Creator: CorelDRAW 2020 (64-Bit) -->
<svg xmlns="http://www.w3.org/2000/svg" xml:space="preserve" width="109.594mm" height="210mm" version="1.1" style="shape-rendering:geometricPrecision; text-rendering:geometricPrecision; image-rendering:optimizeQuality; fill-rule:evenodd; clip-rule:evenodd"
viewBox="0 0 16622.06 31850.73"
 xmlns:xlink="http://www.w3.org/1999/xlink"
 xmlns:xodm="http://www.corel.com/coreldraw/odm/2003">
 <defs>
  <style type="text/css">
   <![CDATA[
    .fil0 {fill:#FEFEFE;fill-rule:nonzero}
   ]]>
  </style>
 </defs>
 <g id="Слой_x0020_1">
  <metadata id="CorelCorpID_0Corel-Layer"/>
  <g id="_2619902290064">
   <path class="fil0" d="M700.05 31850.71c183.7,0.32 360.03,-72.36 490.09,-202.16l15229.24 -15229.17c270.23,-270.29 270.23,-708.47 0,-978.83l-15229.24 -15229.24c-265.62,-274.96 -703.79,-282.56 -978.83,-17 -274.96,265.62 -282.56,703.81 -17,978.85 5.58,5.78 11.22,11.42 17,17l14739.12 14739.12 -14740.49 14739.14c-270.69,269.97 -271.2,708.28 -1.23,978.97 130.18,130.45 307.03,203.65 491.34,203.33z"/>
   <path class="fil0" d="M700.05 31850.71c183.7,0.32 360.03,-72.36 490.09,-202.16l15229.24 -15229.17c270.23,-270.29 270.23,-708.47 0,-978.83l-15229.24 -15229.24c-265.62,-274.96 -703.79,-282.56 -978.83,-17 -274.96,265.62 -282.56,703.81 -17,978.85 5.58,5.78 11.22,11.42 17,17l14739.12 14739.12 -14740.49 14739.14c-270.69,269.97 -271.2,708.28 -1.23,978.97 130.18,130.45 307.03,203.65 491.34,203.33z"/>
   <g>
   </g>
   <g>
   </g>
   <g>
   </g>
   <g>
   </g>
   <g>
   </g>
   <g>
   </g>
   <g>
   </g>
   <g>
   </g>
   <g>
   </g>
   <g>
   </g>
   <g>
   </g>
   <g>
   </g>
   <g>
   </g>
   <g>
   </g>
   <g>
   </g>
  </g>
 </g>
</svg>
